HIERARCHY
ROOT pelvis
{
	OFFSET 0.003123 -0.351407 0.012037
	CHANNELS 6 Xposition Yposition Zposition Zrotation Yrotation Xrotation 
	JOINT left_hip
	{
		OFFSET 0.058189 -0.092763 -0.026001
		CHANNELS 3 Zrotation Yrotation Xrotation
		JOINT left_knee
		{
			OFFSET 0.054695 -0.378753 -0.009396
			CHANNELS 3 Zrotation Yrotation Xrotation
			JOINT left_ankle
			{
				OFFSET -0.043453 -0.403059 -0.031876
				CHANNELS 3 Zrotation Yrotation Xrotation
				JOINT left_foot
				{
					OFFSET 0.047257 -0.057997 0.118216
					CHANNELS 3 Zrotation Yrotation Xrotation
					End Site
					{
						OFFSET 0.000000 0.000000 0.000000
					}
				}
			}
		}
	}
	JOINT right_hip
	{
		OFFSET -0.063267 -0.103908 -0.021250
		CHANNELS 3 Zrotation Yrotation Xrotation
		JOINT right_knee
		{
			OFFSET -0.044210 -0.362380 -0.016824
			CHANNELS 3 Zrotation Yrotation Xrotation
			JOINT right_ankle
			{
				OFFSET 0.015417 -0.410728 -0.020192
				CHANNELS 3 Zrotation Yrotation Xrotation
				JOINT right_foot
				{
					OFFSET -0.038812 -0.058328 0.119049
					CHANNELS 3 Zrotation Yrotation Xrotation
					End Site
					{
						OFFSET 0.000000 0.000000 0.000000
					}
				}
			}
		}
	}
	JOINT spine_1
	{
		OFFSET -0.002763 0.109891 -0.027618
		CHANNELS 3 Zrotation Yrotation Xrotation
		JOINT spine_2
		{
			OFFSET 0.009448 0.131853 -0.005940
			CHANNELS 3 Zrotation Yrotation Xrotation
			JOINT spine_3
			{
				OFFSET -0.011330 0.052235 0.028447
				CHANNELS 3 Zrotation Yrotation Xrotation
				JOINT neck
				{
					OFFSET -0.012164 0.165167 -0.031615
					CHANNELS 3 Zrotation Yrotation Xrotation
					JOINT head
					{
						OFFSET 0.024783 0.160452 0.020737
						CHANNELS 3 Zrotation Yrotation Xrotation
						End Site
						{
							OFFSET 0.000000 0.000000 0.000000
						}
					}
				}
				JOINT left_collar
				{
					OFFSET 0.046364 0.084944 -0.007220
					CHANNELS 3 Zrotation Yrotation Xrotation
					JOINT left_shoulder
					{
						OFFSET 0.119239 0.057728 -0.015461
						CHANNELS 3 Zrotation Yrotation Xrotation
						JOINT left_elbow
						{
							OFFSET 0.254123 -0.072151 -0.042459
							CHANNELS 3 Zrotation Yrotation Xrotation
							JOINT left_wrist
							{
								OFFSET 0.251987 0.023221 -0.002472
								CHANNELS 3 Zrotation Yrotation Xrotation
								JOINT left_index_1
								{
									OFFSET 0.101902 -0.008688 0.019351
									CHANNELS 3 Zrotation Yrotation Xrotation
									JOINT left_index_2
									{
										OFFSET 0.030149 -0.011154 0.001151
										CHANNELS 3 Zrotation Yrotation Xrotation
										JOINT left_index_3
										{
											OFFSET 0.006504 -0.021577 -0.002433
											CHANNELS 3 Zrotation Yrotation Xrotation
											End Site
											{
												OFFSET 0.000000 0.000000 0.000000
											}
										}
									}
								}
								JOINT left_middle_1
								{
									OFFSET 0.109398 -0.006328 -0.003981
									CHANNELS 3 Zrotation Yrotation Xrotation
									JOINT left_middle_2
									{
										OFFSET 0.026472 -0.015218 -0.004641
										CHANNELS 3 Zrotation Yrotation Xrotation
										JOINT left_middle_3
										{
											OFFSET 0.005022 -0.023347 -0.001911
											CHANNELS 3 Zrotation Yrotation Xrotation
											End Site
											{
												OFFSET 0.000000 0.000000 0.000000
											}
										}
									}
								}
								JOINT left_pinky_1
								{
									OFFSET 0.084047 -0.014539 -0.043750
									CHANNELS 3 Zrotation Yrotation Xrotation
									JOINT left_pinky_2
									{
										OFFSET 0.012124 -0.014448 -0.005375
										CHANNELS 3 Zrotation Yrotation Xrotation
										JOINT left_pinky_3
										{
											OFFSET 0.003798 -0.018853 0.000167
											CHANNELS 3 Zrotation Yrotation Xrotation
											End Site
											{
												OFFSET 0.000000 0.000000 0.000000
											}
										}
									}
								}
								JOINT left_ring_1
								{
									OFFSET 0.097444 -0.009268 -0.027345
									CHANNELS 3 Zrotation Yrotation Xrotation
									JOINT left_ring_2
									{
										OFFSET 0.023561 -0.016057 -0.001895
										CHANNELS 3 Zrotation Yrotation Xrotation
										JOINT left_ring_3
										{
											OFFSET 0.004257 -0.023548 0.000814
											CHANNELS 3 Zrotation Yrotation Xrotation
											End Site
											{
												OFFSET 0.000000 0.000000 0.000000
											}
										}
									}
								}
								JOINT left_thumb_1
								{
									OFFSET 0.040636 -0.017977 0.025611
									CHANNELS 3 Zrotation Yrotation Xrotation
									JOINT left_thumb_2
									{
										OFFSET 0.021637 -0.017639 0.011623
										CHANNELS 3 Zrotation Yrotation Xrotation
										JOINT left_thumb_3
										{
											OFFSET 0.024002 -0.008356 0.006548
											CHANNELS 3 Zrotation Yrotation Xrotation
											End Site
											{
												OFFSET 0.000000 0.000000 0.000000
											}
										}
									}
								}
							}
						}
					}
				}
				JOINT right_collar
				{
					OFFSET -0.047695 0.084339 -0.013400
					CHANNELS 3 Zrotation Yrotation Xrotation
					JOINT right_shoulder
					{
						OFFSET -0.102578 0.053524 -0.012669
						CHANNELS 3 Zrotation Yrotation Xrotation
						JOINT right_elbow
						{
							OFFSET -0.271150 -0.036492 -0.026467
							CHANNELS 3 Zrotation Yrotation Xrotation
							JOINT right_wrist
							{
								OFFSET -0.249267 -0.004533 -0.015325
								CHANNELS 3 Zrotation Yrotation Xrotation
								JOINT right_index_1
								{
									OFFSET -0.099881 -0.011783 0.019600
									CHANNELS 3 Zrotation Yrotation Xrotation
									JOINT right_index_2
									{
										OFFSET -0.030148 -0.011154 0.001151
										CHANNELS 3 Zrotation Yrotation Xrotation
										JOINT right_index_3
										{
											OFFSET -0.006505 -0.021577 -0.002432
											CHANNELS 3 Zrotation Yrotation Xrotation
											End Site
											{
												OFFSET 0.000000 0.000000 0.000000
											}
										}
									}
								}
								JOINT right_middle_1
								{
									OFFSET -0.107376 -0.009422 -0.003734
									CHANNELS 3 Zrotation Yrotation Xrotation
									JOINT right_middle_2
									{
										OFFSET -0.026472 -0.015218 -0.004641
										CHANNELS 3 Zrotation Yrotation Xrotation
										JOINT right_middle_3
										{
											OFFSET -0.005022 -0.023347 -0.001911
											CHANNELS 3 Zrotation Yrotation Xrotation
											End Site
											{
												OFFSET 0.000000 0.000000 0.000000
											}
										}
									}
								}
								JOINT right_pinky_1
								{
									OFFSET -0.082027 -0.017634 -0.043503
									CHANNELS 3 Zrotation Yrotation Xrotation
									JOINT right_pinky_2
									{
										OFFSET -0.012123 -0.014448 -0.005374
										CHANNELS 3 Zrotation Yrotation Xrotation
										JOINT right_pinky_3
										{
											OFFSET -0.003798 -0.018852 0.000167
											CHANNELS 3 Zrotation Yrotation Xrotation
											End Site
											{
												OFFSET 0.000000 0.000000 0.000000
											}
										}
									}
								}
								JOINT right_ring_1
								{
									OFFSET -0.095423 -0.012362 -0.027099
									CHANNELS 3 Zrotation Yrotation Xrotation
									JOINT right_ring_2
									{
										OFFSET -0.023561 -0.016057 -0.001895
										CHANNELS 3 Zrotation Yrotation Xrotation
										JOINT right_ring_3
										{
											OFFSET -0.004257 -0.023548 0.000816
											CHANNELS 3 Zrotation Yrotation Xrotation
											End Site
											{
												OFFSET 0.000000 0.000000 0.000000
											}
										}
									}
								}
								JOINT right_thumb_1
								{
									OFFSET -0.038613 -0.021074 0.025861
									CHANNELS 3 Zrotation Yrotation Xrotation
									JOINT right_thumb_2
									{
										OFFSET -0.021636 -0.017639 0.011623
										CHANNELS 3 Zrotation Yrotation Xrotation
										JOINT right_thumb_3
										{
											OFFSET -0.024004 -0.008353 0.006547
											CHANNELS 3 Zrotation Yrotation Xrotation
											End Site
											{
												OFFSET 0.000000 0.000000 0.000000
											}
										}
									}
								}
							}
						}
					}
				}
			}
		}
	}
}
MOTION
Frames: 4
Frame Time: 0.050000
-0.056036 0.953995 -0.053528 2.061660 2.915408 0.315787 4.493300 -0.921426 -7.231686 -3.643507 -6.556027 63.327760 1.733419 3.708712 0.310239 0.000000 0.000000 0.000000 -1.450150 2.904558 -28.470120 -1.161032 1.481127 35.458127 9.570287 15.921714 4.233856 0.000000 0.000000 0.000000 0.550555 -1.862488 24.194623 -6.777560 0.111707 -13.455613 5.000123 -0.197104 17.459732 4.924409 0.112704 -4.702279 0.000000 0.000000 0.000000 21.665336 0.865683 2.046654 33.592662 -43.623793 -24.883912 77.749713 -21.772068 -14.729554 30.388311 23.931425 -52.454166 28.771397 10.048104 11.873524 31.261558 -1.761212 -20.967629 0.000000 0.000000 0.000000 10.839523 -5.728198 -1.653219 38.842817 0.318935 -7.985140 0.000000 0.000000 0.000000 4.820690 -18.077828 -21.847453 37.831239 -2.754918 14.350918 0.000000 0.000000 0.000000 2.700410 -8.952491 -5.745192 47.392389 0.141229 0.577929 0.000000 0.000000 0.000000 63.852313 9.310245 -1.704305 -30.588603 -5.034274 8.873361 0.000000 0.000000 0.000000 -20.849893 3.243253 2.648876 -15.590678 35.780394 -8.752548 -92.828022 18.801840 -13.173922 -28.438335 -28.978715 -56.721260 -25.857826 -8.739462 11.067851 -28.167529 1.871412 -20.410982 0.000000 0.000000 0.000000 -5.952869 2.975352 -0.795090 -37.150501 -1.749173 -9.530099 0.000000 0.000000 0.000000 0.198889 16.242730 -17.442803 -38.635409 2.937398 13.385892 0.000000 0.000000 0.000000 2.347641 7.510085 -3.277321 -48.036605 0.099463 0.281129 0.000000 0.000000 0.000000 -70.069941 4.531872 -13.893762 31.400452 5.347795 8.649280 0.000000 0.000000 0.000000 
-0.048027 0.945775 -0.056168 2.515638 1.848775 0.650103 4.879968 -0.224525 -0.754924 0.242193 -7.066571 52.590319 0.198993 0.356214 -0.058323 0.000000 0.000000 0.000000 -2.014306 3.061275 -30.470179 -0.834121 1.568547 37.677098 12.952867 22.476748 4.534188 0.000000 0.000000 0.000000 0.602123 -1.750529 23.089629 -6.358937 -0.129573 -13.546938 4.494457 -1.227747 17.570180 4.828670 -0.054376 -3.897846 0.000000 0.000000 0.000000 23.342713 1.185319 1.839360 40.070078 -41.822081 -25.214263 70.067512 -10.845909 -5.855694 28.252921 22.574024 -53.954654 31.309054 12.166344 14.832890 34.429370 -2.708595 -23.157488 0.000000 0.000000 0.000000 12.144164 -5.622855 -1.466257 43.816606 -0.838059 -5.629640 0.000000 0.000000 0.000000 8.676959 -17.413541 -22.588303 32.455165 -1.352566 10.390809 0.000000 0.000000 0.000000 4.392225 -8.480619 -5.955201 47.557542 -0.050454 -0.796246 0.000000 0.000000 0.000000 66.844074 11.364863 2.877133 -28.877321 -5.745424 7.977416 0.000000 0.000000 0.000000 -21.534173 2.346638 2.643929 -22.698472 35.255106 -10.537515 -85.396042 10.605081 -4.567021 -26.825893 -26.349645 -58.575764 -28.827657 -9.717678 13.400857 -31.148847 2.701778 -22.169787 0.000000 0.000000 0.000000 -8.119483 3.891095 -1.015266 -40.401337 -0.650309 -7.605588 0.000000 0.000000 0.000000 -1.117635 18.147146 -20.069853 -40.255947 3.756522 16.276978 0.000000 0.000000 0.000000 1.264692 8.577422 -4.425099 -52.616701 1.956612 4.638095 0.000000 0.000000 0.000000 -71.821529 1.677290 -9.869725 29.401672 7.397053 7.372912 0.000000 0.000000 0.000000 
-0.038840 0.937555 -0.058807 2.898459 0.713956 0.282925 5.619316 0.410598 5.877987 2.699009 -6.498830 42.814106 -1.346980 -1.771833 1.138318 0.000000 0.000000 0.000000 -2.188742 3.257282 -31.733025 -0.724083 1.753462 39.438789 16.824692 29.004033 5.778911 0.000000 0.000000 0.000000 0.799584 -1.757474 23.097352 -6.147339 -0.230551 -13.410663 4.388628 -1.600463 17.144665 4.756989 -0.118082 -3.557860 0.000000 0.000000 0.000000 24.587780 1.354407 1.738173 45.559670 -40.344558 -25.446972 64.170096 -1.572199 -0.170926 30.557427 24.849543 -52.745243 31.690600 9.891032 13.700437 35.608782 -1.482498 -20.833503 0.000000 0.000000 0.000000 13.637569 -5.098275 -0.848886 40.945852 -1.824590 -12.086553 0.000000 0.000000 0.000000 7.044040 -21.044919 -25.446908 36.696532 -2.557407 14.787388 0.000000 0.000000 0.000000 4.055419 -10.025697 -6.799500 47.916726 -0.071719 -1.402135 0.000000 0.000000 0.000000 70.742514 9.909925 2.797396 -27.525802 -9.146478 6.526926 0.000000 0.000000 0.000000 -22.487383 1.023255 2.490615 -28.409714 34.425683 -11.778777 -79.122142 3.210726 1.696531 -30.561735 -26.904472 -56.863270 -29.614855 -10.270866 13.898714 -34.087727 3.162193 -23.551479 0.000000 0.000000 0.000000 -8.785032 5.170234 -1.697974 -42.714804 -0.083149 -5.498938 0.000000 0.000000 0.000000 -2.362389 20.089750 -22.397202 -39.074598 3.420306 16.859345 0.000000 0.000000 0.000000 1.499412 11.032378 -5.914851 -52.435431 1.849156 5.036603 0.000000 0.000000 0.000000 -74.969377 -1.091305 -6.392999 28.984771 11.377456 6.416134 0.000000 0.000000 0.000000 
-0.028476 0.929739 -0.058807 3.449867 -0.265697 0.094572 6.257653 0.977874 12.324119 4.322697 -5.285154 32.088965 -2.383809 -2.832286 2.347358 0.000000 0.000000 0.000000 -2.377704 3.463961 -33.244976 -0.643457 1.953375 41.285733 15.335834 26.178698 5.654369 0.000000 0.000000 0.000000 1.039490 -1.712932 22.439393 -6.066383 -0.319114 -13.469560 4.210472 -2.776214 17.290750 4.558693 -0.119931 -3.536540 0.000000 0.000000 0.000000 25.317255 1.453028 1.454629 49.060761 -39.460896 -25.213226 59.950785 5.804377 3.695979 36.602699 26.407969 -47.881157 33.899305 10.346432 14.626106 38.690128 -3.640799 -25.547600 0.000000 0.000000 0.000000 14.042194 -6.684232 -1.720098 43.302840 -1.248053 -7.482383 0.000000 0.000000 0.000000 9.014252 -20.229391 -24.919527 35.839198 -2.424017 14.789441 0.000000 0.000000 0.000000 3.868956 -11.814804 -7.778717 49.579003 -0.280729 -1.454447 0.000000 0.000000 0.000000 76.494339 7.800389 -0.769336 -23.956681 -13.842186 3.793638 0.000000 0.000000 0.000000 -22.412345 0.814295 2.684064 -33.889983 33.543235 -13.047066 -74.365081 -3.264713 5.791397 -38.558490 -28.186931 -53.365879 -30.389467 -8.873047 12.935500 -34.543268 3.208749 -24.075777 0.000000 0.000000 0.000000 -9.867286 7.868631 -2.963287 -42.685622 -0.506024 -4.412970 0.000000 0.000000 0.000000 -5.219206 18.854056 -21.543209 -35.725634 2.361289 11.571004 0.000000 0.000000 0.000000 -0.870889 9.317499 -5.158305 -49.731222 0.716967 -1.299351 0.000000 0.000000 0.000000 -74.791168 -3.184857 -5.300496 26.996195 12.844417 5.183765 0.000000 0.000000 0.000000 
